<svg xmlns="http://www.w3.org/2000/svg" viewBox="0 0 100 100">
  <!-- Background circle -->
  <circle cx="50" cy="50" r="48" fill="#dc2626" opacity="0.1"/>
  
  <!-- Hands forming a heart shape -->
  <path d="M 35 45 C 35 35 25 30 20 35 C 15 40 15 50 35 65 C 55 50 55 40 50 35 C 45 30 35 35 35 45 Z" 
        fill="#dc2626" stroke="#991b1b" stroke-width="2" stroke-linejoin="round"/>
  <path d="M 65 45 C 65 35 75 30 80 35 C 85 40 85 50 65 65 C 45 50 45 40 50 35 C 55 30 65 35 65 45 Z" 
        fill="#dc2626" stroke="#991b1b" stroke-width="2" stroke-linejoin="round"/>
  
  <!-- Center heart -->
  <path d="M 50 55 L 45 50 Q 40 45 37 45 Q 32 45 32 50 Q 32 57 50 70 Q 68 57 68 50 Q 68 45 63 45 Q 60 45 55 50 Z" 
        fill="#fca5a5" stroke="#dc2626" stroke-width="1.5"/>
</svg>